<svg width="115" height="32" viewBox="0 0 115 32" fill="none" xmlns="http://www.w3.org/2000/svg">
<path d="M3.10388 26.2616C3.39853 25.954 3.5453 25.5717 3.5453 25.1137V18.8616C3.5453 18.2286 3.62746 17.6792 3.79176 17.2123C3.95606 16.7464 4.17185 16.3552 4.44021 16.0387C4.70747 15.7222 5.00212 15.4893 5.32197 15.34C5.64181 15.1906 5.95727 15.1149 6.26835 15.1149C6.61448 15.1149 6.92118 15.1773 7.18954 15.2999C7.45681 15.4236 7.75475 15.4849 8.08445 15.4849C8.42948 15.4849 8.74932 15.3567 9.04397 15.1026C9.33753 14.8474 9.48431 14.4295 9.48431 13.8489C9.48431 13.4443 9.30686 13.0933 8.95306 12.7935C8.59817 12.4948 8.16222 12.3455 7.64302 12.3455C7.21036 12.3455 6.77769 12.3978 6.34612 12.5037C5.91346 12.6096 5.50708 12.7723 5.12699 12.9918C4.74691 13.2114 4.40516 13.4844 4.10284 13.8098C3.80052 14.1353 3.55407 14.5086 3.36348 14.931L3.5453 16.6985V14.2188C3.5453 13.7608 3.39853 13.3786 3.10388 13.071C2.81032 12.7634 2.4379 12.6096 1.98881 12.6096C1.53862 12.6096 1.16729 12.7634 0.873739 13.071C0.579089 13.3786 0.432312 13.7608 0.432312 14.2188V25.1137C0.432312 25.5717 0.579089 25.954 0.873739 26.2616C1.16729 26.5692 1.53862 26.7229 1.98881 26.7229C2.4379 26.7229 2.81032 26.5692 3.10388 26.2616ZM23.5026 15.8671C22.8717 14.7683 22.025 13.9068 20.9614 13.2816C19.8978 12.6575 18.7094 12.3455 17.3949 12.3455C16.0805 12.3455 14.8921 12.6575 13.8285 13.2816C12.766 13.9068 11.9182 14.7683 11.2873 15.8671C10.6552 16.966 10.3409 18.2375 10.3409 19.6796C10.3409 21.1217 10.6552 22.3922 11.2873 23.491C11.9182 24.591 12.766 25.448 13.8285 26.0632C14.8921 26.6795 16.0805 26.9871 17.3949 26.9871C18.7094 26.9871 19.8978 26.6795 20.9614 26.0632C22.025 25.448 22.8717 24.591 23.5026 23.491C24.1336 22.3922 24.4501 21.1217 24.4501 19.6796C24.4501 18.2375 24.1336 16.966 23.5026 15.8671ZM20.8059 21.9877C20.451 22.6474 19.9756 23.1612 19.3797 23.5312C18.7828 23.9001 18.1212 24.0851 17.3949 24.0851C16.6687 24.0851 16.0071 23.9001 15.4113 23.5312C14.8143 23.1612 14.3389 22.6474 13.984 21.9877C13.6302 21.3279 13.4528 20.5589 13.4528 19.6796C13.4528 18.7825 13.6302 18.0035 13.984 17.3449C14.3389 16.6851 14.8143 16.1702 15.4113 15.8014C16.0071 15.4314 16.6687 15.2475 17.3949 15.2475C18.1212 15.2475 18.7828 15.4314 19.3797 15.8014C19.9756 16.1702 20.451 16.6851 20.8059 17.3449C21.1597 18.0035 21.3371 18.7825 21.3371 19.6796C21.3371 20.5589 21.1597 21.3279 20.8059 21.9877ZM32.8274 12.6218C32.3257 12.8068 31.8755 13.0487 31.4779 13.3474C31.0803 13.6471 30.7352 13.9681 30.4406 14.3102C30.147 14.6535 29.9225 14.9744 29.767 15.2731L30.1558 15.3522V14.2188C30.1558 13.7608 30.009 13.3786 29.7144 13.071C29.4208 12.7634 29.0484 12.6096 28.5993 12.6096C28.1491 12.6096 27.7778 12.7634 27.4842 13.071C27.1896 13.3786 27.0428 13.7608 27.0428 14.2188V25.1137C27.0428 25.5717 27.1896 25.954 27.4842 26.2616C27.7778 26.5692 28.1491 26.7229 28.5993 26.7229C29.0484 26.7229 29.4208 26.5692 29.7144 26.2616C30.009 25.954 30.1558 25.5717 30.1558 25.1137V18.3601C30.1558 17.7795 30.2807 17.2568 30.5315 16.791C30.7823 16.3252 31.1449 15.9507 31.6214 15.6687C32.0968 15.3879 32.6795 15.2475 33.3718 15.2475C34.0805 15.2475 34.6248 15.3879 35.006 15.6687C35.3861 15.9507 35.6501 16.3252 35.7969 16.791C35.9436 17.2568 36.017 17.7795 36.017 18.3601V25.1137C36.017 25.5717 36.1638 25.954 36.4585 26.2616C36.752 26.5692 37.1233 26.7229 37.5735 26.7229C38.0226 26.7229 38.394 26.5692 38.6886 26.2616C38.9822 25.954 39.13 25.5717 39.13 25.1137V18.3601C39.13 17.2524 39.0041 16.246 38.7532 15.34C38.5024 14.4339 38.0445 13.7084 37.3786 13.1635C36.7126 12.6185 35.7399 12.3455 34.4605 12.3455C33.8734 12.3455 33.3279 12.438 32.8274 12.6218ZM52.616 7.66255C52.3225 7.97014 52.1757 8.35351 52.1757 8.81043V15.8805L53.1089 15.5372C53.1089 15.2909 52.983 14.9878 52.7332 14.6267C52.4824 14.2668 52.1275 13.9113 51.6696 13.5591C51.2107 13.2069 50.6707 12.9172 50.0485 12.6887C49.4263 12.4602 48.7428 12.3455 47.9991 12.3455C46.8413 12.3455 45.7865 12.6575 44.8357 13.2816C43.8839 13.9068 43.1281 14.7683 42.5662 15.8671C42.0042 16.966 41.7227 18.2375 41.7227 19.6796C41.7227 21.1039 42.0042 22.3666 42.5662 23.4654C43.1281 24.5643 43.8926 25.4257 44.8609 26.0498C45.8292 26.675 46.9103 26.9871 48.1032 26.9871C48.7604 26.9871 49.3694 26.8767 49.9313 26.6572C50.4932 26.4377 50.9818 26.1691 51.3969 25.8526C51.812 25.5361 52.1406 25.2151 52.3827 24.8897C52.6248 24.5643 52.7464 24.2879 52.7464 24.0583L52.1757 23.8209V25.1137C52.1757 25.5717 52.3225 25.954 52.616 26.2616C52.9096 26.5692 53.282 26.7229 53.7311 26.7229C54.1813 26.7229 54.5526 26.5692 54.8473 26.2616C55.1408 25.954 55.2876 25.5717 55.2876 25.1137V8.81043C55.2876 8.33568 55.1408 7.94897 54.8473 7.64918C54.5526 7.35051 54.1813 7.20117 53.7311 7.20117C53.282 7.20117 52.9096 7.35497 52.616 7.66255ZM46.5215 23.5044C45.9508 23.1177 45.505 22.5906 45.1851 21.9219C44.8653 21.2532 44.7054 20.5066 44.7054 19.6796C44.7054 18.8349 44.8653 18.0793 45.1851 17.4106C45.505 16.742 45.9508 16.2148 46.5215 15.8281C47.0922 15.4414 47.7483 15.2475 48.492 15.2475C49.2533 15.2475 49.9193 15.4414 50.4899 15.8281C51.0595 16.2148 51.5053 16.742 51.8252 17.4106C52.145 18.0793 52.3049 18.8349 52.3049 19.6796C52.3049 20.5066 52.145 21.2532 51.8252 21.9219C51.5053 22.5906 51.0595 23.1177 50.4899 23.5044C49.9193 23.8911 49.2533 24.0851 48.492 24.0851C47.7483 24.0851 47.0922 23.8911 46.5215 23.5044ZM68.7736 12.8068C68.48 13.1144 68.3332 13.4978 68.3332 13.9547V15.8805L69.2665 15.5372C69.2665 15.2909 69.1416 14.9878 68.8908 14.6267C68.6399 14.2668 68.285 13.9113 67.8272 13.5591C67.3693 13.2069 66.8293 12.9172 66.2061 12.6887C65.5839 12.4602 64.9004 12.3455 64.1577 12.3455C62.9989 12.3455 61.944 12.6575 60.9933 13.2816C60.0425 13.9068 59.2856 14.7683 58.7237 15.8671C58.1618 16.966 57.8814 18.2375 57.8814 19.6796C57.8814 21.1039 58.1618 22.3666 58.7237 23.4654C59.2856 24.5643 60.0502 25.4257 61.0196 26.0498C61.9879 26.675 63.0679 26.9871 64.2607 26.9871C64.9179 26.9871 65.528 26.8767 66.0899 26.6572C66.6519 26.4377 67.1404 26.1691 67.5555 25.8526C67.9696 25.5361 68.2982 25.2151 68.5403 24.8897C68.7823 24.5643 68.9039 24.2879 68.9039 24.0583L68.3332 23.8209V25.1137C68.3332 25.5717 68.48 25.954 68.7736 26.2616C69.0682 26.5692 69.4395 26.7229 69.8897 26.7229C70.3388 26.7229 70.7101 26.5692 71.0048 26.2616C71.2983 25.954 71.4451 25.5717 71.4451 25.1137V13.9547C71.4451 13.48 71.2983 13.0933 71.0048 12.7935C70.7101 12.4948 70.3388 12.3455 69.8897 12.3455C69.4395 12.3455 69.0682 12.4993 68.7736 12.8068ZM62.679 23.5044C62.1083 23.1177 61.6636 22.5906 61.3438 21.9219C61.0229 21.2532 60.864 20.5066 60.864 19.6796C60.864 18.8349 61.0229 18.0793 61.3438 17.4106C61.6636 16.742 62.1083 16.2148 62.679 15.8281C63.2497 15.4414 63.9069 15.2475 64.6507 15.2475C65.4108 15.2475 66.0768 15.4414 66.6475 15.8281C67.2182 16.2148 67.6629 16.742 67.9827 17.4106C68.3026 18.0793 68.4625 18.8349 68.4625 19.6796C68.4625 20.5066 68.3026 21.2532 67.9827 21.9219C67.6629 22.5906 67.2182 23.1177 66.6475 23.5044C66.0768 23.8911 65.4108 24.0851 64.6507 24.0851C63.9069 24.0851 63.2497 23.8911 62.679 23.5044ZM83.6868 13.071C83.3932 13.3786 83.2465 13.7608 83.2465 14.2188V20.9724C83.2465 21.6411 83.1336 22.2072 82.9091 22.673C82.6845 23.14 82.3647 23.4911 81.9496 23.7284C81.5344 23.9658 81.024 24.0851 80.4193 24.0851C79.5376 24.0851 78.8497 23.8521 78.3568 23.3863C77.865 22.9205 77.6185 22.1158 77.6185 20.9724V14.2188C77.6185 13.7608 77.4707 13.3786 77.1771 13.071C76.8825 12.7634 76.5111 12.6096 76.062 12.6096C75.6119 12.6096 75.2405 12.7634 74.947 13.071C74.6523 13.3786 74.5055 13.7608 74.5055 14.2188V21.9219C74.5055 22.9071 74.6961 23.7819 75.0762 24.5464C75.4563 25.3121 75.9887 25.9094 76.6711 26.3407C77.3546 26.7709 78.1542 26.9871 79.071 26.9871C79.8487 26.9871 80.5398 26.8901 81.1456 26.6962C81.7502 26.5034 82.2738 26.2181 82.7141 25.8392C83.1555 25.4614 83.5225 24.9822 83.8171 24.4016L83.2727 23.7685V25.5361C83.2727 26.4332 83.138 27.1409 82.8708 27.6591C82.6024 28.1784 82.2048 28.5473 81.6768 28.768C81.1499 28.9875 80.4884 29.0978 79.6931 29.0978C79.1049 29.0978 78.5868 29.0053 78.1366 28.8203C77.6875 28.6353 77.3239 28.4994 77.0479 28.4113C76.6667 28.2709 76.3041 28.2932 75.958 28.4771C75.6118 28.6621 75.3621 29.0087 75.2066 29.5191C75.085 29.9058 75.1233 30.2713 75.3227 30.6146C75.5209 30.9578 75.8802 31.2431 76.3994 31.4716C76.797 31.6477 77.3064 31.7792 77.9296 31.8672C78.5518 31.9553 79.14 31.9999 79.6931 31.9999C80.9375 31.9999 82.0613 31.7881 83.0646 31.3657C84.0669 30.9445 84.8676 30.2535 85.4634 29.2951C86.0604 28.3367 86.3584 27.0484 86.3584 25.4302V14.2188C86.3584 13.7608 86.2116 13.3786 85.918 13.071C85.6234 12.7634 85.2521 12.6096 84.803 12.6096C84.3528 12.6096 83.9814 12.7634 83.6868 13.071Z" fill="black" fill-opacity="0.64"/>
<path fill-rule="evenodd" clip-rule="evenodd" d="M91.3342 18.5403C89.8467 19.7929 89.483 20.7725 89.483 22.3261C89.483 23.5542 90.5149 24.964 92.0516 24.964H103.914C107.896 24.964 114.569 20.524 114.568 12.666C114.567 6.37943 109.357 0.0504833 102.223 0.000333177C94.0704 -0.0565036 89.5586 7.17069 89.5586 12.3462C89.5586 14.321 90.2104 16.843 91.3342 18.5403ZM91.9991 12.4899C91.9991 6.89319 96.4823 2.35628 102.012 2.35628C107.541 2.35628 112.024 6.89319 112.024 12.4899C112.024 17.9819 107.709 22.4531 102.322 22.6192C102.219 22.6225 102.116 22.6247 102.012 22.6247H92.8797C91.8819 22.6247 91.6661 21.5181 92.2192 20.8427C93.078 19.7951 94.1963 19.1165 94.1963 19.1165C94.1963 19.1165 93.5654 17.9374 93.4756 17.7891C92.5391 16.2479 91.9991 14.4324 91.9991 12.4899ZM101.325 11.0042C102.981 10.6933 104.078 9.0818 103.776 7.40567C103.472 5.72843 101.884 4.62178 100.228 4.93271C98.5719 5.24364 97.4754 6.85514 97.7778 8.53238C98.0801 10.2085 99.6683 11.3152 101.325 11.0042ZM100.988 13.8739C99.8962 12.57 97.976 12.4084 96.6999 13.514C95.4239 14.6184 95.276 16.572 96.3691 17.8759C97.4612 19.1787 99.3814 19.3403 100.657 18.2348C101.934 17.1303 102.081 15.1767 100.988 13.8739ZM103.598 12.735C103.035 14.3498 103.858 16.1229 105.438 16.6946C107.016 17.2652 108.752 16.4193 109.315 14.8045C109.878 13.1897 109.055 11.4177 107.477 10.846C105.899 10.2743 104.163 11.1201 103.598 12.735Z" fill="#2CBE9B"/>
</svg>
